PathFileType	4	(X/Y/Z)	C:\Users\chris\Documents\GitHub\baseballds\vids\pitch5_Sports2D\pitch5_Sports2D_px_person04.trc
DataRate	CameraRate	NumFrames	NumMarkers	Units	OrigDataRate	OrigDataStartFrame	OrigNumFrames
30	30	5	22	m	30	93	149
Frame#	Time	Hip			RHip			RKnee			RAnkle			RBigToe			RSmallToe			RHeel			LHip			LKnee			LAnkle			LBigToe			LSmallToe			LHeel			Neck			Head			Nose			RShoulder			RElbow			RWrist			LShoulder			LElbow			LWrist		
		X1	Y1	Z1	X2	Y2	Z2	X3	Y3	Z3	X4	Y4	Z4	X5	Y5	Z5	X6	Y6	Z6	X7	Y7	Z7	X8	Y8	Z8	X9	Y9	Z9	X10	Y10	Z10	X11	Y11	Z11	X12	Y12	Z12	X13	Y13	Z13	X14	Y14	Z14	X15	Y15	Z15	X16	Y16	Z16	X17	Y17	Z17	X18	Y18	Z18	X19	Y19	Z19	X20	Y20	Z20	X21	Y21	Z21	X22	Y22	Z22
93	3.1	1275.754563085588	467.2150292432655	0.0	1272.2406693380253	468.118764538217	0.0	1271.098081270191	478.8068317900766	0.0	1269.6565857223818	489.00505161197884	0.0	1269.6526809809684	490.1581186350078	0.0	1267.3796116760152	490.241952087369	0.0	1269.8535237780031	489.2781562146197	0.0	1279.18093617663	468.5094158204036	0.0	1277.927536250133	479.37811054640093	0.0	1276.8257019442935	489.5719095240845	0.0	1276.054932326885	491.01475407698746	0.0	1277.8092445172263	489.76930092075406	0.0	1276.559419463284	489.2487869305125	0.0	1276.418806790497	448.8980409909168	0.0	1276.251525329642	439.8518806834545	0.0	1276.2773592635276	444.95965478784683	0.0	1271.361669458278	450.6396950298152	0.0	1268.7842451476256	457.77463768891533	0.0	1268.3527473379079	465.5772808708557	0.0	1281.620208248566	450.75475134343526	0.0	1284.178831662878	458.36286937048686	0.0	1283.8059098974993	466.578263621325	0.0
94	3.1333333333333333	1275.6658333421835	467.4013592245355	0.0	1272.1800064072481	468.262887829918	0.0	1270.8735748511253	479.21677357504444	0.0	1269.8253001097528	489.5413104908572	0.0	1269.356864624014	490.84371732969237	0.0	1267.4087416870702	490.91044771805036	0.0	1270.0112750857502	489.54908865614436	0.0	1279.0785427326987	468.68792857417475	0.0	1277.878512586583	479.93640201283074	0.0	1276.6243828766783	490.1288911661709	0.0	1276.3128676861577	491.53363376437323	0.0	1278.0284252801582	490.87195264390067	0.0	1276.4019440991342	489.6222878650977	0.0	1276.4402680732614	448.9994350356789	0.0	1276.514347950891	439.8683199031348	0.0	1276.5116598412244	445.16587244182335	0.0	1271.2856365851155	450.7038747334951	0.0	1268.4148401392617	457.83986366577835	0.0	1267.4064295809694	466.22473948666214	0.0	1281.704514722494	450.86439196129055	0.0	1284.2367020921192	458.6007292797517	0.0	1283.742365070441	466.8254138056498	0.0
95	3.1666666666666665	1275.4749180133772	467.4124789620552	0.0	1271.95080732894	468.39927425161164	0.0	1270.503430675471	479.52546852056355	0.0	1269.4844663518222	489.8222725879453	0.0	1268.6693947433648	490.8926516822578	0.0	1267.1251246960826	490.8898699700862	0.0	1269.798459989773	489.7116327176164	0.0	1278.9548711645796	468.90584417587905	0.0	1277.8048659212138	480.45786083121646	0.0	1276.3037540664118	490.4854854691803	0.0	1275.6364166635424	491.5974259425213	0.0	1277.135778486404	491.6060403115933	0.0	1276.1425485927043	489.6039829035529	0.0	1276.5077057855951	449.09571354175824	0.0	1276.7163543527195	439.9300371341414	0.0	1276.6011930589862	445.26041750189324	0.0	1271.2487772842824	450.7320658367564	0.0	1268.2106525277277	457.9956957600882	0.0	1266.1228058038585	466.6467531264476	0.0	1281.8636298360357	450.93542237994126	0.0	1284.1913780500581	459.075159571433	0.0	1283.805775318711	467.1357442374889	0.0
96	3.2	1275.3406955951136	467.34407530468735	0.0	1271.7066466517501	468.4878250290528	0.0	1270.2332957879942	479.7051464061079	0.0	1268.9717052237474	489.91148456924327	0.0	1267.998215920178	490.5851154350747	0.0	1266.6850225384392	490.4635104220474	0.0	1269.4641558301628	489.77649207610705	0.0	1278.8887859178367	469.0657333604646	0.0	1277.696389768397	480.8076368136972	0.0	1275.9983923621119	490.6703137542561	0.0	1274.0866092389028	491.38210622918035	0.0	1275.5954705860568	491.7980092162537	0.0	1275.8281595756039	489.52602391132876	0.0	1276.5779886239134	449.1480939801313	0.0	1276.7420566242415	440.00709679481304	0.0	1276.496706787114	445.2361987760453	0.0	1271.2200527985276	450.6717275230685	0.0	1268.2373532572592	458.01572231768006	0.0	1265.7508704750924	466.4720552574071	0.0	1281.977278316892	450.9286016847982	0.0	1284.1002082002947	459.35757202575115	0.0	1283.8993801088657	467.3508306202003	0.0
97	3.2333333333333334	1275.152980957367	467.41724111191314	0.0	1271.4261535052742	468.63177293638296	0.0	1270.0400780101227	479.7802072422408	0.0	1268.6668713773167	489.94375706209894	0.0	1267.474272721931	490.36342854861977	0.0	1266.3154244675952	490.1074846643912	0.0	1269.2807102233783	489.6985607341754	0.0	1278.686161588037	469.1926218870937	0.0	1277.4626823069862	480.89469877625254	0.0	1275.7216503877257	490.7265555271851	0.0	1272.2687665978192	491.1440179901158	0.0	1274.3085432285413	491.47665024189473	0.0	1275.4259964377566	489.59129280235413	0.0	1276.504233951349	449.0449351133455	0.0	1276.6543440511145	439.99998262562656	0.0	1276.3088307964551	445.0695782704614	0.0	1271.0849758561462	450.5494161661357	0.0	1268.2000956826919	457.9098667497519	0.0	1267.3918552625316	466.1065465552932	0.0	1281.8613449016902	450.89526560657526	0.0	1283.866630469675	459.31847217089836	0.0	1283.800724618999	467.4135545534158	0.0
